<!DOCTYPE svg PUBLIC "-//W3C//DTD SVG 1.1//EN" "http://www.w3.org/Graphics/SVG/1.1/DTD/svg11.dtd">
<!-- Uploaded to: SVG Repo, www.svgrepo.com, Transformed by: SVG Repo Mixer Tools -->
<svg fill="#ffffff" width="800px" height="800px" viewBox="0 0 512 512" xmlns="http://www.w3.org/2000/svg" stroke="#ffffff">
<g id="SVGRepo_bgCarrier" stroke-width="0"/>
<g id="SVGRepo_tracerCarrier" stroke-linecap="round" stroke-linejoin="round"/>
<g id="SVGRepo_iconCarrier">
<title>ionicons-v5-o</title>
<path d="M424,80H88a56.06,56.06,0,0,0-56,56V376a56.06,56.06,0,0,0,56,56H424a56.06,56.06,0,0,0,56-56V136A56.06,56.06,0,0,0,424,80Zm-14.18,92.63-144,112a16,16,0,0,1-19.64,0l-144-112a16,16,0,1,1,19.64-25.26L256,251.73,390.18,147.37a16,16,0,0,1,19.64,25.26Z"/>
</g>
</svg>