<svg id="Layer_1" data-name="Layer 1" xmlns="http://www.w3.org/2000/svg" viewBox="0 0 89.81 88.98"><defs><style>.cls-1{fill:#78cff5;}</style></defs><title>jquery_icon</title><path class="cls-1" d="M92.82,71.55l-.4,1c-6.83,13.34-19,21.52-36.3,21.88a50.48,50.48,0,0,1-20.84-4.17,53.77,53.77,0,0,1-25-23.62C3.1,52.82,1.81,33.51,16.71,19.09c.23,0-1.8,3.13-1.58,3.13l-.4,1.34C4,57.16,37.06,86,69.21,82.67c7.72-.8,17.57-5,23.62-11.12" transform="translate(-5.09 -5.51)"/><path class="cls-1" d="M73.37,57.66a30.78,30.78,0,0,0,21.54-9c-4.37,11.1-17,18.25-34,16C46.64,62.71,33.08,48.38,31.69,34c-1-10.44,2.62-16.67,8.61-24.23a25.26,25.26,0,0,0-3,9c-2.28,22.59,18,38.79,36.12,38.9" transform="translate(-5.09 -5.51)"/><path class="cls-1" d="M94.1,29.6c-1.26,2.89-8.5,8.33-11.7,9-12.65,2.7-20.76-3.3-25-10.13a30.46,30.46,0,0,1-2-4.52c-1.65-5.6-.9-14.07,4-18.45a23.06,23.06,0,0,0-.92,12.16A26.93,26.93,0,0,0,61.84,25c2.62,3.8,4.28,4.73,7.64,6.76a20.85,20.85,0,0,0,3.85,1.84c3.19.93,9.92,3.4,20.77-4" transform="translate(-5.09 -5.51)"/></svg>