<svg xmlns="http://www.w3.org/2000/svg" width="512" height="512" viewBox="0 0 512 512"><path fill="#63D45F" d="M348.1 345.4l43.7-29.5c-3.2-5.7-44.5-76.3-132.2-76.3-87.3 0-135.2 70-139.3 76.3l44.2 29.3c3.8-6 34.3-51.7 91.4-51.7 59.8 0 90.9 49.7 92.2 51.9z"/><path fill="#63D45F" d="M460.3 240.6L278.6 120s-11.3-10.3-22.6-10.3-24.1 11.3-24.1 11.3L56.4 237S41 245.2 41 256s15.4 17.5 15.4 17.5l19.2 12.6s58.3-99.9 183-99.9S436 286.1 436 286.1l26.4-17.7s8.7-5.1 8.7-13.7c-.1-8.6-10.8-14.1-10.8-14.1zM303.5 375.2s-13.4-28.4-48.2-28.4-46 27.2-46 27.2l31.3 21.6s10.8 6.7 15.3 6.7c4.6 0 12.9-3.4 12.9-3.4l34.7-23.7z"/></svg>