<svg id="Layer_1" data-name="Layer 1" xmlns="http://www.w3.org/2000/svg" viewBox="0 0 638 622.05"><defs><style>.cls-1{fill:#300;}.cls-2{fill:#ff9a00;}</style></defs><title>Illustrator Logo Vector</title><g id="Layer_2" data-name="Layer 2"><g id="Surfaces"><g id="Drawing_Surface" data-name="Drawing Surface"><g id="Outline_no_shadow" data-name="Outline no shadow"><path class="cls-1" d="M294,189H706A112.88,112.88,0,0,1,819,302v396.1A112.88,112.88,0,0,1,706,811H294a112.88,112.88,0,0,1-113-113V302A112.88,112.88,0,0,1,294,189Z" transform="translate(-181 -188.98)"/></g></g></g><g id="Outlined_Mnemonics_Logos" data-name="Outlined Mnemonics Logos"><g id="Ai"><path class="cls-2" d="M490.16,562.2H391.27l-20.2,62.48A4.66,4.66,0,0,1,366,628.4H316c-2.92,0-3.72-1.6-2.92-4.79l85.6-246.43c.8-2.65,1.59-5.58,2.66-8.77A93.11,93.11,0,0,0,403,351.13a2.63,2.63,0,0,1,2.13-2.92H474c2.13,0,3.19.8,3.45,2.13l97,273.8c.8,2.93,0,4.26-2.66,4.26H516.22a4,4,0,0,1-4.26-2.93Zm-83.47-54h67.52c-1.59-5.58-3.72-12.23-6.11-19.14-2.39-7.18-4.79-14.89-7.18-22.86-2.66-8.24-5.05-16.22-7.71-24.46s-5-15.95-7.17-23.66c-2.13-7.44-4-14.35-5.85-20.73h-.53a328.63,328.63,0,0,1-9,34.29c-4,12.76-8,26.05-12.23,39.34-3.72,13.56-7.71,26.06-11.7,37.22Z" transform="translate(-181 -188.98)"/><path class="cls-2" d="M632.39,393.67a32.89,32.89,0,0,1-23.66-9.31,34.48,34.48,0,0,1-9-24.45,31.25,31.25,0,0,1,9.57-23.66,34,34,0,0,1,23.66-9.31c10.36,0,18.34,3.19,24.19,9.31a36.55,36.55,0,0,1-.53,48.11A31.29,31.29,0,0,1,632.39,393.67ZM602.61,624.41V419.72c0-2.66,1.06-3.72,3.46-3.72H658.7c2.4,0,3.46,1.33,3.46,3.72V624.41c0,2.92-1.06,4.25-3.46,4.25H606.6C603.94,628.66,602.61,627.07,602.61,624.41Z" transform="translate(-181 -188.98)"/></g></g></g></svg>