<svg id="Layer_1" data-name="Layer 1" xmlns="http://www.w3.org/2000/svg" viewBox="0 0 81.12 83.65"><defs><style>.cls-1{fill:#fff;}</style></defs><title>logo</title><g id="SvgjsG1488"><path class="cls-1" d="M130.07,17.43H72.73A11.9,11.9,0,0,0,60.84,29.32V89.18a11.9,11.9,0,0,0,11.89,11.89h57.34A11.9,11.9,0,0,0,142,89.18V29.32A11.9,11.9,0,0,0,130.07,17.43Zm-11.8,5.23A8.35,8.35,0,0,1,126.61,31V75.69A8.36,8.36,0,0,1,118.27,84H83.69a8.36,8.36,0,0,1-8.34-8.35V31a8.35,8.35,0,0,1,8.34-8.34ZM62.7,29.32a10,10,0,0,1,10-10h50.71l-5.3,1.51H83.69A10.22,10.22,0,0,0,73.49,31V75.32L62.7,86.83Z" transform="translate(-60.84 -17.43)"/></g><path class="cls-1" d="M115.29,40.71V66h-6.16V50.18L103.66,66H98.33l-5.5-15.85V66H86.67V40.71h7.52l6.88,17.61,6.73-17.61Z" transform="translate(-60.84 -17.43)"/></svg>